<svg width="165" height="24" viewBox="0 0 165 24" fill="none" xmlns="http://www.w3.org/2000/svg">
<path d="M27.2569 5.69801C26.1106 4.47849 24.26 3.78949 22.1786 3.78949C19.751 3.80093 17.3747 4.45059 15.3152 5.66585C13.9511 4.45661 12.1503 3.78547 10.2806 3.78949C8.48552 3.80769 6.71679 4.19976 5.1002 4.93782V4.16155H0V24H5.1002V8.98681C6.43111 8.25877 7.49244 7.80863 8.81121 7.80863C11.1306 7.80863 11.9685 9.01437 11.9685 11.4833V24H17.0687V8.76403C18.1869 8.12972 19.4684 7.79915 20.7724 7.80863C23.1112 7.80863 23.9418 9.24173 23.9418 11.6417V24H29.042V11.0125C29.042 8.61245 28.4907 6.96346 27.2569 5.69801Z" fill="#020C2A"/>
<path d="M134.146 6.31577V24H139.678V6.31577H134.146Z" fill="#020C2A"/>
<path d="M125.493 17.316C125.493 15.3238 125.418 0 125.418 0H120.317C120.317 0 120.329 16.213 120.329 18.7374C120.329 22.756 123.244 24 126.632 24C128.575 24 130.47 23.8567 131.381 23.6088V19.6971C130.452 19.8452 129.512 19.9168 128.57 19.9109C126.406 19.9109 125.493 19.3788 125.493 17.316Z" fill="#020C2A"/>
<path d="M136.912 9.16243e-07C136.179 -0.000569706 135.475 0.265412 134.956 0.739311C134.437 1.21321 134.146 1.85612 134.146 2.52632C134.146 3.92156 135.385 5.05263 136.912 5.05263C138.44 5.05263 139.678 3.92156 139.678 2.52632C139.679 1.85612 139.388 1.21321 138.869 0.739311C138.35 0.265412 137.646 -0.000569706 136.912 9.16243e-07Z" fill="#020C2A"/>
<path d="M157.073 12.1516C156.074 12.012 153.119 11.5886 152.242 11.476C148.885 11.0255 148.088 10.5256 148.088 9.50535C148.088 8.37929 149.246 7.70366 153.119 7.70366C156.555 7.70366 157.832 8.26669 158.312 8.93557C158.512 9.25312 158.552 9.84993 158.552 10.1675H163.744C163.747 9.38175 163.625 8.59949 163.383 7.84329C162.346 5.27362 159.311 3.78947 152.909 3.78947C146.119 3.78947 142.805 6.00781 142.805 9.28239C142.805 12.8745 145.002 14.7055 149.833 15.3383C150.633 15.4442 153.665 15.8676 154.347 15.9712C157.863 16.4644 159.339 16.818 159.339 18.1557C159.339 19.5295 158.021 20.2682 154.028 20.2682C150.273 20.2682 148.316 19.9507 147.917 18.8607C147.798 18.4827 147.744 18.0908 147.759 17.6986H142.445C142.435 18.3616 142.515 19.0233 142.685 19.6692C143.523 22.7681 146.918 24 154.028 24C161.337 24 164.571 21.9934 164.571 18.0499C164.589 14.5479 162.392 12.8925 157.073 12.1516Z" fill="#020C2A"/>
<path fill-rule="evenodd" clip-rule="evenodd" d="M112.345 4.41356H117.551V23.4799H112.345V22.2024C110.458 23.4121 108.011 23.9683 105.234 24C101.169 23.9548 97.8018 22.7835 95.8854 20.0814C94.7177 18.5596 94.0408 16.4748 94.0408 13.8586C94.0408 11.3848 94.7177 9.33391 95.9969 7.77821C97.8861 5.31125 101.084 3.83696 105.234 3.78947C108.095 3.82113 110.505 4.53341 112.345 5.78158V4.41356ZM105.234 20.3776C108.849 20.3776 111.807 17.594 111.807 14.2023V13.6912C111.807 10.2949 108.849 7.51592 105.234 7.51592C101.62 7.51592 98.662 10.2994 98.662 13.6912V14.2023C98.662 17.5986 101.62 20.3776 105.234 20.3776Z" fill="#020C2A"/>
<path d="M85.3131 0H80.2113V8.42604H80.2234V18.7374C80.2234 22.756 83.1387 24 86.5278 24C88.4713 24 90.3639 23.8567 91.2749 23.6088V19.6971C90.3464 19.8453 89.4059 19.9169 88.464 19.9109C86.2994 19.9109 85.3884 19.3788 85.3884 17.316V8.18497H89.8367V3.98901H85.3131V0Z" fill="#020C2A"/>
<path d="M69.7558 3.78947C67.3426 3.78944 64.9649 4.34797 62.824 5.4178V4.15923H58.084V24H63.1036V9.07177C64.6583 8.30377 66.3754 7.88816 68.1233 7.85684C70.8554 7.85684 72.4258 9.40249 72.4258 12.0965V24H77.4454V11.4924C77.4454 8.7778 76.8215 6.98871 75.4256 5.69569C74.0297 4.40268 72.1796 3.78947 69.7558 3.78947Z" fill="#020C2A"/>
<path fill-rule="evenodd" clip-rule="evenodd" d="M35.1051 7.78321C36.9834 5.27441 40.1897 3.78947 44.3507 3.78947C48.7366 3.78947 51.7204 5.31057 53.4504 7.63404C54.9626 9.68402 55.5154 12.6516 55.2569 15.6193H38.0529C38.0987 16.7422 38.5999 17.8056 39.4527 18.5891C40.4098 19.5361 42.214 20.2142 44.389 20.2142C46.2673 20.2142 47.6671 19.7893 48.5883 19.2943C49.6579 18.7293 50.1723 17.9518 50.2465 17.4568H55.1086C54.6731 19.3813 53.4745 21.0755 51.7587 22.1919C50.0646 23.3219 47.6336 24 44.3914 24C40.3021 24 36.9116 22.8337 34.9974 20.0786C33.8536 18.5597 33.1908 16.4759 33.1908 13.8608C33.1908 11.3859 33.8512 9.33821 35.1051 7.78321ZM39.4528 9.23198C38.5989 9.97738 38.0728 10.9987 37.9788 12.0934H50.3207C50.3546 11.0551 49.942 10.0482 49.177 9.30205C48.1792 8.41832 46.71 7.67698 44.3508 7.67698C42.1422 7.67698 40.5199 8.31209 39.4528 9.23198Z" fill="#020C2A"/>
</svg>
